<?xml version="1.0" standalone="no"?>
<!DOCTYPE svg PUBLIC "-//W3C//DTD SVG 20010904//EN"
 "http://www.w3.org/TR/2001/REC-SVG-20010904/DTD/svg10.dtd">
<svg version="1.0" xmlns="http://www.w3.org/2000/svg"
 width="531.000000pt" height="129.000000pt" viewBox="0 0 531.000000 129.000000"
 preserveAspectRatio="xMidYMid meet">

<g transform="translate(0.000000,129.000000) scale(0.100000,-0.100000)"
fill="#0017b4" stroke="none">
<path d="M0 805 l0 -483 23 -5 c40 -10 770 -147 784 -147 11 0 13 92 13 483
l0 483 -318 58 c-174 33 -359 67 -409 76 l-93 17 0 -482z m584 291 c31 -15 69
-43 83 -61 l27 -34 30 35 c23 26 36 34 49 28 10 -3 16 -12 14 -18 -2 -6 -15
-72 -27 -146 -13 -74 -26 -139 -30 -143 -4 -4 -14 -5 -22 -2 -10 4 -17 26 -22
69 -10 99 -31 149 -85 199 -81 76 -168 73 -253 -10 -87 -84 -157 -349 -128
-486 20 -96 79 -156 170 -171 88 -14 205 55 245 144 15 33 22 39 39 34 30 -9
30 -8 6 -53 -56 -111 -155 -174 -273 -175 -216 -1 -369 159 -369 384 1 179 82
328 217 397 75 39 93 43 186 40 70 -3 96 -8 143 -31z"/>
<path d="M2978 1063 c-75 -4 -78 -5 -78 -28 0 -20 5 -25 26 -25 24 0 26 -3 21
-32 -3 -18 -13 -59 -22 -91 l-16 -57 -26 20 c-32 25 -110 27 -159 4 -64 -30
-124 -143 -124 -231 0 -114 100 -174 201 -120 l45 24 21 -23 c23 -26 61 -31
96 -13 33 17 77 61 94 93 14 27 14 31 -3 43 -15 11 -20 9 -34 -15 -21 -34 -58
-67 -66 -59 -3 3 1 29 10 59 23 82 116 440 116 449 0 5 -6 8 -12 7 -7 -1 -48
-4 -90 -5z m-103 -260 c35 -34 -8 -201 -63 -243 -28 -23 -62 -26 -80 -8 -19
19 -14 101 9 162 32 87 95 128 134 89z"/>
<path d="M4033 1051 c-74 -34 -116 -126 -94 -208 15 -53 40 -75 145 -120 54
-23 97 -48 108 -64 18 -24 18 -29 5 -61 -26 -63 -120 -87 -185 -48 -44 27 -72
76 -72 128 0 38 -2 42 -24 42 -22 0 -26 -7 -40 -72 -32 -144 -31 -138 -4 -138
13 0 29 5 36 12 9 9 21 7 53 -11 48 -28 138 -38 195 -22 119 32 184 150 141
254 -19 44 -31 52 -144 101 -113 49 -135 73 -112 122 8 16 31 37 52 48 77 37
145 -9 169 -113 10 -44 15 -51 32 -49 18 3 24 18 42 98 20 91 20 95 2 98 -10
2 -27 -3 -39 -11 -19 -14 -25 -13 -67 9 -56 30 -138 32 -199 5z"/>
<path d="M1427 1042 c-21 -23 -22 -85 -1 -102 41 -35 114 -1 114 52 0 57 -76
91 -113 50z"/>
<path d="M4891 998 c-233 -367 -278 -432 -314 -451 -23 -12 -37 -26 -37 -38 0
-17 8 -19 105 -19 58 0 105 4 105 9 0 5 3 16 6 24 4 11 -2 16 -22 19 -46 5
-51 29 -18 82 l29 46 87 0 c97 0 91 4 101 -78 4 -36 -6 -48 -43 -54 -17 -2
-26 -10 -28 -26 l-3 -23 133 3 c129 3 133 4 136 26 3 18 -1 22 -21 22 -14 0
-29 6 -35 13 -5 6 -25 122 -44 257 l-34 245 -32 3 c-28 3 -34 -2 -71 -60z m17
-193 c6 -44 9 -81 8 -83 -2 -1 -35 -2 -74 0 l-70 3 56 87 c31 48 60 84 63 80
4 -4 12 -43 17 -87z"/>
<path d="M1155 854 c-16 -9 -40 -28 -53 -42 l-23 -27 7 38 6 37 -81 0 c-80 0
-81 0 -81 -25 0 -18 5 -25 20 -25 11 0 23 -7 27 -16 5 -13 -25 -147 -63 -281
-6 -22 -4 -23 50 -23 37 0 58 4 60 13 34 121 75 227 100 260 40 52 56 58 56
18 0 -49 53 -68 90 -31 29 29 26 74 -6 99 -31 25 -67 26 -109 5z"/>
<path d="M1850 859 c-13 -6 -32 -17 -42 -25 -15 -15 -16 -14 -11 5 5 21 3 22
-83 19 -84 -3 -89 -4 -92 -25 -3 -19 1 -23 22 -23 14 0 27 -4 30 -9 3 -5 -8
-55 -25 -112 -17 -57 -43 -144 -58 -194 -26 -87 -28 -90 -59 -93 -18 -2 -32
-7 -32 -12 0 -5 -3 -16 -6 -24 -6 -15 7 -16 117 -14 120 3 124 4 127 26 3 18
-1 22 -22 22 -35 0 -37 8 -19 72 l16 57 24 -19 c108 -85 283 43 286 209 2 115
-77 178 -173 140z m40 -59 c21 -13 19 -104 -4 -163 -19 -50 -66 -97 -96 -97
-10 0 -26 8 -35 17 -24 23 -15 105 19 171 36 71 77 97 116 72z"/>
<path d="M2245 851 c-49 -23 -99 -74 -119 -123 -23 -54 -21 -153 4 -193 36
-59 120 -71 180 -27 25 19 26 19 43 -4 36 -48 113 -19 172 64 30 43 30 44 10
58 -18 13 -21 13 -30 -2 -18 -30 -57 -75 -62 -70 -3 2 14 70 36 150 23 81 41
149 41 151 0 3 -22 5 -50 5 -37 0 -53 -5 -61 -18 -11 -18 -13 -17 -35 5 -28
28 -73 30 -129 4z m126 -72 c19 -73 -36 -222 -88 -235 -46 -12 -58 6 -57 82 0
72 17 118 57 162 30 32 78 27 88 -9z"/>
<path d="M3262 849 c-128 -63 -176 -261 -84 -343 12 -10 40 -20 64 -23 34 -4
50 0 79 20 l36 24 21 -23 c38 -44 113 -20 162 52 34 49 38 71 13 76 -12 2 -28
-11 -47 -42 -44 -66 -44 -33 -2 115 20 68 36 131 36 140 0 11 -12 15 -51 15
-44 0 -52 -3 -56 -21 -5 -19 -8 -20 -17 -7 -31 42 -90 48 -154 17z m132 -55
c19 -51 -8 -174 -50 -224 -35 -41 -80 -42 -95 -2 -20 53 20 196 65 227 27 20
72 19 80 -1z"/>
<path d="M1330 851 c0 -5 -3 -16 -6 -25 -5 -13 1 -16 25 -16 38 0 38 -4 5
-122 -32 -116 -34 -160 -9 -188 24 -26 75 -23 120 6 31 21 87 102 79 115 -7
11 -44 12 -44 1 0 -13 -58 -78 -64 -72 -3 3 13 71 34 150 22 80 40 148 40 152
0 5 -40 8 -90 8 -49 0 -90 -4 -90 -9z"/>
<path d="M4380 600 c-29 -29 -26 -74 6 -99 34 -26 68 -27 94 -1 43 43 11 120
-50 120 -17 0 -39 -9 -50 -20z"/>
<path d="M5170 600 c-47 -47 -1 -129 65 -116 82 16 69 136 -15 136 -17 0 -39
-9 -50 -20z"/>
<path d="M1860 415 l0 -24 1725 -1 1725 0 0 25 0 25 -1725 0 -1725 0 0 -25z"/>
<path d="M1939 307 c-39 -26 -66 -89 -56 -129 27 -105 166 -141 244 -63 29 29
33 39 33 85 0 47 -4 56 -39 91 -35 36 -43 39 -93 39 -41 0 -64 -6 -89 -23z
m132 -18 c16 -31 8 -177 -11 -189 -23 -15 -57 -12 -74 6 -20 19 -23 173 -4
192 21 21 76 15 89 -9z"/>
<path d="M3080 320 c0 -5 7 -10 15 -10 11 0 15 -11 15 -39 0 -39 0 -40 -33
-34 -51 8 -87 -26 -87 -82 0 -35 5 -48 26 -64 23 -18 35 -20 103 -14 76 6 97
12 74 20 -10 3 -13 37 -13 119 l0 114 -50 0 c-27 0 -50 -4 -50 -10z m11 -110
c14 -8 19 -21 19 -53 0 -43 -13 -67 -37 -67 -9 0 -13 18 -13 65 0 36 3 65 6
65 3 0 14 -5 25 -10z"/>
<path d="M3730 320 c0 -5 5 -10 10 -10 6 0 10 -42 10 -105 0 -63 -4 -105 -10
-105 -5 0 -10 -4 -10 -10 0 -6 45 -10 115 -10 l115 0 0 45 c0 49 -15 59 -30
21 -11 -29 -38 -46 -74 -46 l-26 0 0 105 c0 98 1 105 20 105 11 0 20 5 20 10
0 6 -30 10 -70 10 -40 0 -70 -4 -70 -10z"/>
<path d="M4428 291 c-39 -37 -41 -41 -20 -41 37 0 104 38 100 58 -6 31 -37 24
-80 -17z"/>
<path d="M4817 314 c-4 -4 -7 -18 -7 -31 0 -19 5 -23 31 -23 27 0 30 3 27 28
-3 26 -34 43 -51 26z"/>
<path d="M4680 255 c0 -16 -6 -25 -15 -25 -8 0 -15 -4 -15 -10 0 -5 7 -10 15
-10 12 0 15 -14 15 -65 0 -60 2 -65 24 -71 14 -3 30 -3 37 1 6 4 45 7 85 6 46
-1 74 2 74 9 0 5 -7 10 -15 10 -12 0 -15 15 -15 71 0 69 -1 71 -22 65 -13 -3
-33 -6 -45 -6 -13 0 -23 -4 -23 -10 0 -5 7 -10 15 -10 12 0 15 -13 15 -55 0
-42 -3 -55 -15 -55 -8 0 -15 7 -15 15 0 8 -4 15 -10 15 -5 0 -10 -4 -10 -10 0
-5 -4 -10 -10 -10 -5 0 -10 23 -10 50 0 38 4 50 15 50 8 0 15 5 15 10 0 6 -7
10 -15 10 -9 0 -15 9 -15 25 0 21 -5 25 -30 25 -25 0 -30 -4 -30 -25z"/>
<path d="M2203 232 c-32 -3 -47 -22 -18 -22 12 0 15 -17 15 -95 0 -57 -4 -95
-10 -95 -5 0 -10 -4 -10 -10 0 -6 27 -10 60 -10 33 0 60 4 60 10 0 6 -7 10
-15 10 -10 0 -15 10 -15 28 0 25 3 27 39 27 55 0 81 26 81 81 0 74 -43 91
-187 76z m117 -77 c0 -66 -7 -76 -40 -55 -10 6 -15 25 -15 55 0 30 5 49 15 55
33 21 40 11 40 -55z"/>
<path d="M2464 231 c-45 -20 -67 -78 -44 -121 23 -43 120 -49 156 -9 25 28 10
35 -22 10 -35 -28 -52 -27 -64 5 -16 41 -13 44 45 44 47 0 55 3 55 18 0 42
-77 73 -126 53z m66 -31 c0 -15 -7 -20 -25 -20 -24 0 -34 18 -18 33 15 15 43
7 43 -13z"/>
<path d="M2625 230 c-25 -6 -27 -8 -12 -14 23 -11 25 -116 2 -116 -8 0 -15 -4
-15 -10 0 -6 27 -10 60 -10 33 0 60 4 60 10 0 6 -7 10 -15 10 -16 0 -20 49 -6
84 7 18 8 18 14 3 8 -21 53 -22 61 -2 14 37 -26 65 -64 45 -13 -7 -20 -7 -20
0 0 11 -20 11 -65 0z"/>
<path d="M2823 230 c-28 -12 -33 -60 -6 -60 14 0 13 -3 -5 -16 -52 -36 -5
-102 54 -76 18 9 31 9 46 1 15 -8 27 -8 44 0 27 12 32 31 9 31 -12 0 -15 13
-15 55 0 50 -2 56 -26 65 -31 12 -71 12 -101 0z m65 -38 c2 -15 -2 -22 -12
-22 -11 0 -16 9 -16 26 0 31 23 28 28 -4z m0 -64 c-5 -32 -28 -35 -28 -4 0 17
5 26 16 26 10 0 14 -7 12 -22z"/>
<path d="M3254 226 c-33 -15 -44 -33 -44 -72 0 -39 17 -61 56 -74 46 -15 106
0 129 33 52 74 -49 155 -141 113z m80 -22 c8 -20 7 -62 0 -92 -5 -16 -13 -22
-28 -20 -18 3 -22 11 -24 52 -2 27 -1 55 2 62 7 19 42 18 50 -2z"/>
<path d="M3448 233 c-26 -4 -41 -23 -18 -23 6 0 10 -25 10 -55 0 -30 -4 -55
-10 -55 -5 0 -10 -4 -10 -10 0 -6 27 -10 60 -10 33 0 60 4 60 10 0 6 -7 10
-15 10 -16 0 -20 49 -6 84 7 18 8 18 14 2 11 -28 51 -17 55 16 4 31 -25 46
-58 28 -13 -7 -20 -7 -20 0 0 10 -11 11 -62 3z"/>
<path d="M4024 226 c-33 -15 -44 -33 -44 -72 0 -39 17 -61 54 -74 119 -39 204
89 96 145 -35 18 -65 19 -106 1z m80 -28 c8 -33 7 -81 -3 -96 -5 -8 -17 -12
-27 -10 -15 2 -20 14 -22 52 -2 27 -1 55 2 62 9 23 43 16 50 -8z"/>
<path d="M4225 223 c-24 -13 -27 -19 -22 -49 3 -18 2 -36 -3 -39 -12 -7 -10
-107 3 -122 5 -8 33 -13 67 -13 69 0 110 26 110 69 0 41 -17 51 -94 52 l-71 2
61 7 c73 8 84 14 84 46 0 13 4 24 9 24 5 0 16 3 25 6 13 5 16 -3 16 -50 0 -31
-4 -56 -10 -56 -5 0 -10 -4 -10 -10 0 -5 25 -10 55 -10 30 0 55 5 55 10 0 6
-4 10 -10 10 -6 0 -10 29 -10 68 l0 67 -114 1 c-81 1 -121 -3 -141 -13z m75
-38 c0 -28 -4 -35 -20 -35 -15 0 -20 7 -20 28 0 32 7 42 27 42 8 0 13 -12 13
-35z m45 -139 c0 -23 -46 -39 -87 -30 -22 4 -28 11 -28 30 0 24 2 25 58 22 49
-3 57 -6 57 -22z"/>
<path d="M4533 225 c-18 -13 -22 -25 -22 -79 l0 -64 39 -6 c75 -12 118 31 91
90 -6 14 -11 33 -11 43 0 13 -10 20 -31 25 -42 8 -41 8 -66 -9z m57 -15 c22
-13 5 -23 -27 -16 -21 6 -24 9 -12 17 18 11 20 11 39 -1z m18 -95 c10 -10 -18
-23 -39 -18 -11 3 -24 13 -29 23 -9 16 -6 17 26 10 20 -5 38 -11 42 -15z"/>
<path d="M4954 226 c-33 -15 -44 -33 -44 -72 0 -40 18 -62 59 -75 42 -13 85 1
105 33 16 27 -2 34 -25 9 -31 -33 -63 -25 -67 18 -4 44 5 81 21 81 7 0 13 -12
12 -27 0 -23 4 -28 25 -28 20 0 26 6 28 27 3 22 -2 30 -23 38 -34 13 -53 12
-91 -4z"/>
<path d="M5150 227 c-63 -32 -61 -109 3 -141 69 -33 147 1 147 65 0 43 -15 65
-51 78 -41 14 -68 14 -99 -2z m75 -72 c0 -54 -2 -60 -22 -63 -17 -3 -23 3 -28
28 -4 17 -4 47 0 66 5 29 10 35 28 32 20 -3 22 -9 22 -63z"/>
</g>
</svg>
